<?xml version="1.0" encoding="iso-8859-1"?>
<!-- Generator: Adobe Illustrator 17.1.0, SVG Export Plug-In . SVG Version: 6.00 Build 0)  -->
<!DOCTYPE svg PUBLIC "-//W3C//DTD SVG 1.1//EN" "http://www.w3.org/Graphics/SVG/1.1/DTD/svg11.dtd">
<svg version="1.1" id="Capa_1" xmlns="http://www.w3.org/2000/svg" xmlns:xlink="http://www.w3.org/1999/xlink" x="0px" y="0px"
	 viewBox="0 0 360.146 360.146" style="enable-background:new 0 0 360.146 360.146;" xml:space="preserve">
<g>
	<g>
		<path d="M334.38,0H25.765c-5.514,0-10,4.486-10,10v340.146c0,5.514,4.486,10,10,10H334.38c5.514,0,10-4.486,10-10V10
			C344.38,4.486,339.894,0,334.38,0z M291.046,57.437L247.493,87.95c-1.802,1.262-3.276,0.495-3.276-1.705V75.921c0-2.2-1.8-4-4-4
			H69.823c-2.2,0-4-1.8-4-4V42.355c0-2.2,1.8-4,4-4h170.392c2.2,0,4-1.8,4-4V24.036c0-2.2,1.474-2.967,3.276-1.705l43.555,30.515
			C292.848,54.109,292.848,56.174,291.046,57.437z"/>
	</g>
</g>
<path style="fill:#FFFFFF;" d="M244.311,262.127c-1.142-0.171-34.575-21.327-34.575-21.327c-1.692-1.102-2.794-2.904-2.942-4.928
	l-1.178-15.154l-17.543,22.864l28.43,33.336c1.473,1.654,2.133,3.861,1.803,6.068l-7.65,48.476
	c-0.131,0.866-0.459,1.647-0.806,2.396c-2.19,4.723-6.59,8.298-12.109,8.298c-7.18,0-13-5.82-13-13
	c0-1.54,6.644-41.462,6.644-41.462l-22.741-30.18l-3.3,35.514c-0.221,3.274-2.611,6.032-5.849,6.693
	c0,0-49.143,10.185-50.505,10.185c-7.18,0-13-5.82-13-13c0-6.507,4.786-11.882,11.027-12.834c0.203-0.062,33.463-6.932,33.463-6.932
	l1.067-44.284c0.074-1.435,0.589-2.796,1.435-3.937l36.742-40.197l-23.501-2.576c0,0-6.581,22.84-7.105,23.544
	c-2.216,4.003-6.478,6.715-11.377,6.715c-7.18,0-13-5.82-13-13c0-2.095,10.812-39.401,10.812-39.401
	c0.884-3.2,3.788-5.37,7.062-5.37c0.258,0,0.551,0,0.81,0.038l52.373,5.738c1.288,0.145,2.502,0.625,3.531,1.359l2.795,2.031
	c-2.298-4.238-3.604-9.092-3.604-14.252c0-16.535,13.404-29.939,29.939-29.939s29.939,13.404,29.939,29.939
	s-13.404,29.939-29.939,29.939c-1.86,0-3.677-0.178-5.442-0.503l3.236,2.352c1.765,1.25,2.832,3.236,3.015,5.37l2.611,33.541
	c0,0,24.782,16.308,25.298,17.093C270.573,251.073,259.073,270.573,244.311,262.127z"/>
<g>
</g>
<g>
</g>
<g>
</g>
<g>
</g>
<g>
</g>
<g>
</g>
<g>
</g>
<g>
</g>
<g>
</g>
<g>
</g>
<g>
</g>
<g>
</g>
<g>
</g>
<g>
</g>
<g>
</g>
</svg>
