<?xml version="1.0" encoding="iso-8859-1"?>
<!-- Generator: Adobe Illustrator 17.1.0, SVG Export Plug-In . SVG Version: 6.00 Build 0)  -->
<!DOCTYPE svg PUBLIC "-//W3C//DTD SVG 1.1//EN" "http://www.w3.org/Graphics/SVG/1.1/DTD/svg11.dtd">
<svg version="1.1" id="Capa_1" xmlns="http://www.w3.org/2000/svg" xmlns:xlink="http://www.w3.org/1999/xlink" x="0px" y="0px"
	 viewBox="0 0 298.139 298.139" style="enable-background:new 0 0 298.139 298.139;" xml:space="preserve">
<path d="M257.198,87.569c-0.859,0-1.55,0.171-2.375,0.509l-19.947,8.176c-1.435,0.586-3.325,1.652-4.551,2.594l-8.116,6.222h-17.141
	v-12c0-8.029-5.406-14.74-12.889-16.521c9.351-7.981,15.38-19.841,15.38-33.069C207.56,19.504,188.098,0,164.123,0
	c-21.392,0-39.191,15.532-42.785,35.908C117.744,15.532,99.935,0,78.543,0C54.568,0,35.07,19.504,35.07,43.479
	c0,13.347,5.886,25.303,15.381,33.285c-7.058,2.067-12.382,8.579-12.382,16.306v74c0,9.389,7.944,17,17.333,17h43.667v8.2
	c0,1.588,1.02,2.992,2.183,3.909l-57.906,71.423c-5.224,6.429-4.183,15.876,2.247,21.101c2.781,2.26,6.158,3.358,9.482,3.358
	c4.36,0,8.557-1.893,11.521-5.541l39.473-48.738v45.357c0,8.284,6.716,15,15,15c8.284,0,15-6.716,15-15v-46.751l40.879,50.132
	c2.965,3.649,7.362,5.541,11.723,5.541c3.324,0,6.706-1.1,9.486-3.358c6.43-5.225,7.424-14.672,2.201-21.101l-58.548-72.026
	c0.788-0.885,1.259-2.036,1.259-3.306v-8.2h45.333c9.389,0,16.667-7.611,16.667-17v-21h18.457l6.841,5.318
	c1.228,0.943,3.159,2.085,4.594,2.671l20.027,8.192c0.826,0.338,1.682,0.517,2.541,0.517c1.763,0,3.108-0.741,4.265-2.04
	c1.035-1.162,1.275-2.698,1.275-4.334V93.951C263.069,90.373,260.676,87.569,257.198,87.569z M107.288,76.069
	c7.233-6.385,12.326-15.13,14.071-25.021c1.745,9.891,6.838,18.636,14.071,25.021H107.288z M185.069,125.069c0,4.418-3.582,8-8,8
	h-42c-4.418,0-8-3.582-8-8v-21c0-4.418,3.582-8,8-8h42c4.418,0,8,3.582,8,8V125.069z"/>
<g>
</g>
<g>
</g>
<g>
</g>
<g>
</g>
<g>
</g>
<g>
</g>
<g>
</g>
<g>
</g>
<g>
</g>
<g>
</g>
<g>
</g>
<g>
</g>
<g>
</g>
<g>
</g>
<g>
</g>
</svg>
